# xmcd CD database file
#
# Track frame offsets:
#	150
#	19285
#	36441
#	54853
#	70788
#	86663
#	102671
#	132461
#	151706
#	166563
#	187501
#	208538
#
# Disc length: 3038 seconds
#
# Revision: 0
# Processed by: cddbd v1.4PL0 Copyright (c) Steve Scherf et al.
# Submitted via: CDex 1.50Beta7
#
DISCID=920bdc0c
DTITLE=Ruper Ordorika - Kantuok Jartzen Ditut
DYEAR=2003
DGENRE=Blues
TTITLE0=Haize Goxoarena
TTITLE1=Zaindu Maite Duzun Hori
TTITLE2=Mila Legoa
TTITLE3=Esan Gabeko Arrazoia
TTITLE4=Ene Gogoan Zena
TTITLE5=Iratzarri
TTITLE6=Kantuaren Gauza Galdua
TTITLE7=Ahal Bezala
TTITLE8=Gauza Erabiliak
TTITLE9=Euria Lagun
TTITLE10="Done Ezer Ezdaezinezko"
TTITLE11=Lagun Erratuena
EXTD=YEAR: 2003
EXTT0=
EXTT1=
EXTT2=
EXTT3=
EXTT4=
EXTT5=
EXTT6=
EXTT7=
EXTT8=
EXTT9=
EXTT10=
EXTT11=
PLAYORDER=
